# xmcd
#
# Track frame offsets:
#	150
#	15587
#	26432
#	41130
#	58587
#	70677
#	83652
#	97907
#	111437
#	126592
#	139797
#	152435
#	162559
#	177032
#	188575
#	201030
#	218987
#	234490
#	247540
#	263570
#
# Disc length: 3732 seconds
#
# Revision: 1
# Processed by: cddbd v1.4PL0 Copyright (c) Steve Scherf et al.
# Submitted via: EasyCDDAExtractor 6.0.0.1
#
DISCID=030e9214
DTITLE=Various Artist - 20 Suosikkia
DYEAR=1991
DGENRE=Country
TTITLE0=Muistojen ruusut
TTITLE1=Ken oli hän
TTITLE2=Varo vain 
TTITLE3=Näin tietäni käyn
TTITLE4=Näen kaukaa vuoret nuo
TTITLE5=Maa Romaanin, maa ihmisen
TTITLE6=Mustalaiskaravaani
TTITLE7=Kasvot kertoo kaiken
TTITLE8=Tuulen tapaan
TTITLE9=Silkkiliina
TTITLE10=Mä vapaa oon mustalainen
TTITLE11=Käy joukkoon tummaan
TTITLE12=Mustalaisäidin kehtolaulu
TTITLE13=Elämän malja
TTITLE14=Kohtalon tiellä
TTITLE15=Mustalintu
TTITLE16=Luonnonlapset
TTITLE17=Anneli Sari ja Hortto Kaalo - Kun tummat saapuu taivaaseen
TTITLE18=Jos sadetta ois kyyneleet
TTITLE19=Antonio vargas
EXTD=
EXTT0=
EXTT1=
EXTT2=
EXTT3=
EXTT4=
EXTT5=
EXTT6=
EXTT7=
EXTT8=
EXTT9=
EXTT10=
EXTT11=
EXTT12=
EXTT13=
EXTT14=
EXTT15=
EXTT16=
EXTT17=
EXTT18=
EXTT19=
PLAYORDER=
